<svg xmlns="http://www.w3.org/2000/svg" xmlns:xlink="http://www.w3.org/1999/xlink" width="149" height="93" fill="none" xmlns:v="https://vecta.io/nano"><g opacity=".8" fill="#9992ff"><use xlink:href="#B"/><use xlink:href="#B" y="-21.8"/><use xlink:href="#B" x="23.7"/><use xlink:href="#B" x="23.7" y="-21.8"/><use xlink:href="#C"/><use xlink:href="#C" y="-21.8"/><use xlink:href="#B" y="65.2"/><path d="M97.9 65.2a3.01 3.01 0 0 0-3 3 3.01 3.01 0 0 0 3 3 3.01 3.01 0 0 0 3-3c-.1-1.6-1.4-3-3-3z"/><use xlink:href="#B" y="21.7"/><use xlink:href="#B" x="23.7" y="65.2"/><path d="M121.6 65.2a3.01 3.01 0 0 0-3 3 3.01 3.01 0 0 0 3 3 3.01 3.01 0 0 0 3-3c-.1-1.6-1.4-3-3-3z"/><use xlink:href="#B" x="23.7" y="21.7"/><use xlink:href="#C" y="65.2"/><path d="M145.3 65.2a3.01 3.01 0 0 0-3 3 3.01 3.01 0 0 0 3 3 3.01 3.01 0 0 0 3-3 3.08 3.08 0 0 0-3-3z"/><use xlink:href="#C" y="21.7"/><use xlink:href="#D"/><path d="M3 0C1.4 0 0 1.3 0 3C0 4.6 1.3 6 3 6C4.6 6 6 4.7 6 3C6 1.3 4.7 0 3 0Z"/><use xlink:href="#D" x="23.7"/><use xlink:href="#D" x="23.7" y="-21.8"/><use xlink:href="#D" x="47.4"/><use xlink:href="#D" x="47.4" y="-21.8"/><path d="M76.6 23.1c-.2-.3-.5-.6-.8-.8-.5-.3-1-.5-1.7-.5-.4 0-.8.1-1.2.2-.4.2-.7.4-.9.6-.5.5-.9 1.3-.9 2.1s.3 1.6.9 2.1c.3.3.6.5.9.6.4.2.7.2 1.2.2.6 0 1.2-.2 1.7-.5.3-.2.6-.5.8-.8s.4-.7.4-1.1c0-.2.1-.4.1-.6s0-.4-.1-.6c0-.3-.2-.6-.4-.9zm0-21.8c-.2-.3-.5-.6-.8-.8-.5-.3-1-.5-1.7-.5-.4 0-.8.1-1.2.2-.4.2-.7.4-.9.6-.5.5-.9 1.3-.9 2.1s.3 1.6.9 2.1c.3.3.6.5.9.6.4.2.7.2 1.2.2.6 0 1.2-.2 1.7-.5.3-.2.6-.5.8-.8s.4-.7.4-1.1c0-.2.1-.4.1-.6s0-.4-.1-.6c0-.2-.2-.6-.4-.9zM3 87a3.01 3.01 0 0 0-3 3 3.01 3.01 0 0 0 3 3 3.01 3.01 0 0 0 3-3c0-1.7-1.3-3-3-3z"/><use xlink:href="#C" x="-142.3" y="43.4"/><use xlink:href="#D" y="21.7"/><use xlink:href="#D" x="23.7" y="65.2"/><use xlink:href="#C" x="-118.6" y="43.4"/><use xlink:href="#D" x="23.7" y="21.7"/><use xlink:href="#D" x="47.4" y="65.2"/><use xlink:href="#C" x="-94.9" y="43.4"/><use xlink:href="#D" x="47.4" y="21.7"/><path d="M76.6 88.3c-.2-.3-.5-.6-.8-.8-.5-.3-1-.5-1.7-.5-.4 0-.8.1-1.2.2-.4.2-.7.4-.9.6-.5.5-.9 1.3-.9 2.1s.3 1.6.9 2.1c.3.3.6.5.9.6.4.1.7.2 1.2.2.6 0 1.2-.2 1.7-.5.3-.2.6-.5.8-.8s.4-.7.4-1.1c0-.2.1-.4.1-.6s0-.4-.1-.6c0-.3-.2-.6-.4-.9zm0-21.8c-.2-.3-.5-.6-.8-.8-.5-.3-1-.5-1.7-.5-.4 0-.8.1-1.2.2-.4.2-.7.4-.9.6-.5.5-.9 1.3-.9 2.1s.3 1.6.9 2.1c.3.3.6.5.9.6.4.1.7.2 1.2.2.6 0 1.2-.2 1.7-.5.3-.2.6-.5.8-.8s.4-.7.4-1.1c0-.2.1-.4.1-.6s0-.4-.1-.6c0-.2-.2-.6-.4-.9zm0-21.7c-.2-.3-.5-.6-.8-.8-.5-.3-1-.5-1.7-.5-.4 0-.8.1-1.2.2s-.7.4-.9.6c-.5.5-.9 1.3-.9 2.1s.3 1.6.9 2.1c.3.3.6.5.9.6.4.2.7.2 1.2.2.6 0 1.2-.2 1.7-.5.3-.2.6-.5.8-.8s.4-.7.4-1.1c0-.2.1-.4.1-.6s0-.4-.1-.6c0-.2-.2-.6-.4-.9z"/></g><defs ><path id="B" d="M97.9 21.8a3.01 3.01 0 0 0-3 3 3.01 3.01 0 0 0 3 3 3.01 3.01 0 0 0 3-3c-.1-1.7-1.4-3-3-3z"/><path id="C" d="M145.3 21.8a3.01 3.01 0 0 0-3 3 3.01 3.01 0 0 0 3 3 3.01 3.01 0 0 0 3-3 3.01 3.01 0 0 0-3-3z"/><path id="D" d="M3 21.8a3.01 3.01 0 0 0-3 3 3.01 3.01 0 0 0 3 3 3.01 3.01 0 0 0 3-3c0-1.7-1.3-3-3-3z"/></defs></svg>